<svg width="128" height="128" viewBox="0 0 128 128" fill="none" xmlns="http://www.w3.org/2000/svg">
  <g clip-path="url(#clip0_26_388)">
    <path
      d="M80.1393 121.158C111.163 112.266 128.934 79.6086 119.956 48.2851C110.979 16.9615 78.6077 -1.3254 47.5839 7.56605C16.5601 16.4575 -1.21033 49.1151 7.76702 80.4386C16.7444 111.762 49.1155 130.049 80.1393 121.158Z"
      fill="#fff" stroke="currentColor" fill-opacity="0" stop-opacity="0" stroke-width="7.29412" />
    <path
      d="M43.6146 22.4789C39.5376 21.0251 35.617 25.6452 36.3845 29.0856C36.8333 31.0329 37.8446 32.6552 39.3025 33.5485C38.3144 33.7225 37.2831 34.1273 36.3747 34.7701C34.5579 36.0556 27.0738 40.8229 23.3173 43.1561C22.9266 41.793 22.5794 40.5813 22.3623 39.824C21.5881 36.9319 20.0485 33.2758 16.4493 33.8702C12.915 34.5008 11.8577 38.2456 13.0149 41.9021C13.9695 44.8518 17.2254 56.5933 19.2566 61.5836C21.7858 66.9775 25.9789 69.2175 30.8341 69.5743C35.0112 69.8522 42.2226 66.802 46.6292 65.5937C49.8603 64.6677 50.9977 61.774 50.3755 59.6031C49.8183 57.4683 46.9819 55.7681 44.638 56.5492C42.2941 57.3302 39.5393 58.3929 34.9738 59.4282C29.1677 60.7098 27.9175 58.0633 26.7317 54.6882C26.4931 54.0464 26.1677 53.1016 25.8639 52.0415C30.9114 49.4475 36.2758 46.0526 40.5365 42.8101C44.2133 40.0081 44.767 37.9373 43.5098 35.4568C43.2931 35.0818 43.0908 34.7574 42.8021 34.5123C43.0185 34.5049 43.1844 34.512 43.4008 34.5046C47.1589 34.0831 49.1758 30.4457 48.8568 28.5704C48.5379 26.695 47.7421 23.9183 43.6146 22.4789ZM42.4015 29.8741C41.067 29.9834 40.6256 28.2525 41.4545 27.5232C42.2691 26.7434 43.3006 26.721 43.9003 27.8603C44.5 28.9995 43.671 29.7288 42.4015 29.8741ZM74.7746 26.5509L85.8668 23.3172C85.8668 23.3172 87.0986 29.9024 85.9556 34.8737C84.6979 40.5881 84.3242 42.3342 81.5368 47.6675C79.6424 51.1606 80.1427 54.2405 82.1634 55.191C84.1985 56.1921 86.6517 56.7456 90.1458 51.2097C95.0305 43.4724 95.9745 33.4227 95.0634 22.0472C94.5166 14.9925 91.1464 13.3361 88.3835 13.4177C85.6352 13.5498 75.3581 16.7684 71.2254 17.789C67.2297 18.7156 66.1421 20.8302 65.4394 26.0031C64.6289 31.7532 63.2015 32.8725 63.5355 35.563C64.102 40.2082 68.7331 39.9736 70.8018 37.851C73.0794 35.5047 74.7746 26.5509 74.7746 26.5509ZM61.3173 107.121C58.0499 107.73 51.2942 112.179 47.0275 108.157C46.1467 107.372 44.7426 101.71 43.9253 99.0487C44.4156 98.8535 44.8411 98.6223 45.18 98.4705C47.0981 97.5384 53.4146 94.0345 54.2008 93.9184C55.0015 93.8528 53.9564 94.9718 54.8602 97.5537C55.8509 100.438 59.9765 99.5838 61.2088 97.9741C62.506 96.4004 63.7357 91.732 62.7297 87.6498C61.7381 83.6181 56.8616 83.7591 54.3737 84.8C53.155 85.3131 45.0496 89.0566 41.4224 90.6971C41.133 89.6874 40.0913 86.0524 39.9466 85.5476C39.1003 82.7854 36.6391 81.2508 33.7833 82.3425C31.216 83.2968 30.2512 85.6493 31.3001 89.1183C31.4737 89.7241 32.5444 93.46 32.8412 94.6862C32.6897 94.7296 32.5528 94.8235 32.4518 94.8524C26.0913 97.4402 23.1933 99.9097 25.3172 103.508C27.7082 107.466 32.8632 103.913 34.8681 103.283C35.0196 103.24 35.2575 103.117 35.409 103.074C36.7035 107.019 37.6018 111.678 41.154 115.304C47.8902 122.224 59.5153 117.799 63.0705 116.289C66.8277 114.72 67.8066 112.036 66.8522 109.468C65.8185 106.814 64.5847 106.513 61.3173 107.121ZM79.0381 76.3107C80.0069 78.9285 82.6178 87.0852 83.2138 92.5961C83.9047 99.391 82.1399 102.574 82.5103 105.582C82.8807 108.59 84.7065 109.432 86.5677 109.445C88.4938 109.494 90.5846 108.021 91.5564 105.502C93.0537 101.577 93.6361 99.2243 92.2655 90.439C91.1996 83.8608 90.4962 79.3095 88.4502 73.8863C86.8091 69.4944 84.1038 69.3956 81.7525 69.9603C79.7186 70.4885 77.6285 72.7265 79.0381 76.3107ZM92.3652 71.3438C92.836 73.5581 97.6539 89.9873 98.6017 93.4853C99.6001 96.9687 100.389 100.676 101.451 102.284C102.419 103.755 104.786 105.152 108.053 103.397C110.093 102.32 114.664 99.2071 117.959 96.0231C121.202 92.8536 120.356 90.0913 119.287 88.6494C118.269 87.1931 115.304 86.9502 113.587 87.8245C112.448 88.4242 108.404 92.0417 107.553 92.1217C107.553 92.1217 105.961 86.5683 105.477 84.6859C104.717 81.8443 101.989 71.7543 101.179 68.9272C100.419 66.0855 97.2151 65.2009 95.7726 65.505C94.2941 65.8741 91.5106 67.2182 92.3652 71.3438Z"
      fill="currentColor" />
    <path
      d="M75.8406 66.6366L78.6416 63.2738L78.6275 63.2621L78.6133 63.2505L75.8406 66.6366ZM68.587 62.105L64.7161 60.063L62.7768 63.7391L66.348 65.8654L68.587 62.105ZM72.0227 55.6025L75.8501 57.7248L75.8823 57.6668L75.9127 57.6079L72.0227 55.6025ZM72.3012 52.1902L68.0941 53.3959L68.1203 53.4873L68.1505 53.5775L72.3012 52.1902ZM70.4597 49.7678L72.4574 45.8739L72.4213 45.8554L72.3849 45.8375L70.4597 49.7678ZM64.6034 51.4462L60.9559 49.0278L60.9176 49.0855L60.8812 49.1443L64.6034 51.4462ZM61.0883 57.8622L58.9232 61.6656L62.8094 63.8779L64.9374 59.9449L61.0883 57.8622ZM55.2855 54.3899L52.5494 57.8056L52.5707 57.8227L52.5923 57.8395L55.2855 54.3899ZM48.736 55.1744L52.2762 57.7474L52.2833 57.7375L48.736 55.1744ZM49.8446 61.1393L52.9203 58.0258L52.8667 57.9729L52.8114 57.9219L49.8446 61.1393ZM57.0188 65.5844L60.9064 67.5943L62.8264 63.8807L59.2046 61.7928L57.0188 65.5844ZM53.4034 72.794L57.3635 74.657L57.4128 74.5523L57.4564 74.4451L53.4034 72.794ZM53.0177 77.5482L48.9253 79.0992L48.9823 79.2496L49.0502 79.3954L53.0177 77.5482ZM55.2052 79.6529L53.4881 83.6784L53.5833 83.719L53.6803 83.7551L55.2052 79.6529ZM60.8081 76.8998L56.9807 74.7776L56.9807 74.7776L60.8081 76.8998ZM64.5175 69.8272L66.6826 66.0238L62.7269 63.772L60.632 67.813L64.5175 69.8272ZM70.4142 73.4365L67.9541 77.0561L67.9656 77.0639L70.4142 73.4365ZM77.8367 72.8389L74.1672 70.4539L74.1248 70.5192L74.0847 70.586L77.8367 72.8389ZM78.6133 63.2505C78.0313 62.7739 76.9939 62.104 75.8471 61.3879C74.5946 60.6058 72.9116 59.5865 70.826 58.3447L66.348 65.8654C68.4124 67.0946 70.035 68.0779 71.2112 68.8124C71.8003 69.1802 72.2595 69.4745 72.5976 69.6992C72.9738 69.9492 73.0898 70.0406 73.0679 70.0227L78.6133 63.2505ZM72.4578 64.1471C74.1541 60.9317 75.4833 58.3863 75.8501 57.7248L68.1952 53.4803C67.7696 54.2478 66.3474 56.9708 64.7161 60.063L72.4578 64.1471ZM75.9127 57.6079C76.999 55.5005 77.2207 53.1028 76.452 50.8028L68.1505 53.5775C68.1536 53.5869 68.155 53.5926 68.1554 53.5945C68.1559 53.5964 68.1555 53.5954 68.1551 53.5919C68.1547 53.5884 68.1542 53.5832 68.1541 53.5769C68.154 53.5706 68.1542 53.5641 68.1547 53.5578C68.1552 53.5516 68.1559 53.5466 68.1566 53.5433C68.1572 53.54 68.1575 53.5392 68.1569 53.5411C68.1559 53.5446 68.1502 53.5632 68.1327 53.5972L75.9127 57.6079ZM76.5083 50.9844C76.2597 50.1169 75.8718 49.1067 75.164 48.1455C74.4236 47.1402 73.4955 46.4065 72.4574 45.8739L68.4619 53.6617C68.472 53.6669 68.4223 53.6423 68.3436 53.5772C68.2613 53.5092 68.1819 53.4254 68.1159 53.3359C67.9895 53.1642 68.0099 53.1022 68.0941 53.3959L76.5083 50.9844ZM72.3849 45.8375C68.384 43.8778 63.4318 45.2934 60.9559 49.0278L68.251 53.8647C68.2828 53.8167 68.3498 53.7566 68.4596 53.7259C68.5109 53.7115 68.5492 53.7106 68.567 53.712C68.5827 53.7132 68.5684 53.7147 68.5345 53.6981L72.3849 45.8375ZM60.8812 49.1443C60.3822 49.9512 58.8896 52.7292 57.2392 55.7795L64.9374 59.9449C66.7156 56.6586 68.0033 54.2693 68.3256 53.7481L60.8812 49.1443ZM63.2534 54.0588C61.8299 53.2485 60.5478 52.5062 59.5617 51.9184C59.0672 51.6237 58.6639 51.3777 58.3618 51.187C58.0114 50.9659 57.9276 50.9003 57.9788 50.9403L52.5923 57.8395C53.1385 58.266 54.1436 58.8788 55.0801 59.437C56.1365 60.0667 57.4743 60.8408 58.9232 61.6656L63.2534 54.0588ZM58.0217 50.9742C55.7233 49.1331 52.807 48.5262 49.96 49.3422L52.3715 57.7563C52.422 57.7419 52.449 57.7401 52.4552 57.7398C52.4608 57.7395 52.457 57.7401 52.4486 57.7384C52.4403 57.7367 52.4407 57.7355 52.4527 57.7412C52.4651 57.7471 52.4982 57.7646 52.5494 57.8056L58.0217 50.9742ZM49.96 49.3422C48.1536 49.8599 46.3936 50.9435 45.1886 52.6112L52.2833 57.7375C52.252 57.7809 52.2266 57.8071 52.2135 57.8195C52.2004 57.832 52.1969 57.8331 52.2064 57.8268C52.2157 57.8206 52.2346 57.8091 52.2637 57.7957C52.2928 57.7824 52.3289 57.7685 52.3715 57.7563L49.96 49.3422ZM45.1957 52.6014C43.892 54.3953 43.3519 56.5917 43.7244 58.8097C44.0894 60.9829 45.2711 62.8752 46.8778 64.3567L52.8114 57.9219C52.3389 57.4862 52.3394 57.2586 52.3565 57.36C52.3643 57.4069 52.3669 57.488 52.3443 57.5827C52.3219 57.6764 52.2869 57.7326 52.2762 57.7473L45.1957 52.6014ZM46.7689 64.2528C47.5486 65.023 48.8697 65.8503 49.9597 66.5161C51.2397 67.298 52.9093 68.2669 54.8331 69.376L59.2046 61.7928C57.2671 60.6759 55.6925 59.7611 54.5222 59.0463C53.9366 58.6887 53.4928 58.4056 53.1759 58.1897C52.7971 57.9317 52.7887 57.8958 52.9203 58.0258L46.7689 64.2528ZM53.1312 63.5745C51.4439 66.8381 49.8001 70.0388 49.3503 71.1429L57.4564 74.4451C57.7122 73.8173 59.079 71.1291 60.9064 67.5943L53.1312 63.5745ZM49.4432 70.931C48.7786 72.3438 47.6276 75.6752 48.9253 79.0992L57.1101 75.9973C57.1109 75.9993 57.062 75.8556 57.112 75.5086C57.1615 75.1645 57.2791 74.8364 57.3635 74.657L49.4432 70.931ZM49.0502 79.3954C49.9275 81.2798 51.4887 82.8255 53.4881 83.6784L56.9224 75.6274C56.9301 75.6307 56.9607 75.6483 56.9853 75.7011L49.0502 79.3954ZM53.6803 83.7551C54.5852 84.0915 55.5429 84.3269 56.5925 84.3398C57.6314 84.3527 58.4817 84.1406 59.0658 83.9732L56.6543 75.559C56.5868 75.5784 56.5433 75.5897 56.5155 75.5965C56.4886 75.603 56.483 75.6036 56.4933 75.6018C56.5045 75.5998 56.5309 75.5957 56.5691 75.5923C56.6079 75.589 56.6525 75.587 56.7005 75.5876C56.7484 75.5882 56.7917 75.5912 56.8283 75.5954C56.8645 75.5996 56.8881 75.6041 56.8968 75.606C56.9121 75.6092 56.8637 75.6003 56.7302 75.5507L53.6803 83.7551ZM59.0658 83.9732C62.4104 83.0147 63.9535 80.2523 64.6356 79.0221L56.9807 74.7776C56.8338 75.0425 56.7177 75.2387 56.6131 75.397C56.5099 75.5532 56.4408 75.6371 56.4039 75.6773C56.37 75.7141 56.3797 75.6962 56.4353 75.6595C56.4967 75.6192 56.575 75.5818 56.6543 75.559L59.0658 83.9732ZM64.6356 79.0221C65.033 78.3054 66.587 75.3444 68.4029 71.8414L60.632 67.813C58.7891 71.3681 57.3036 74.1951 56.9807 74.7776L64.6356 79.0221ZM62.3523 73.6306C65.1302 75.2119 67.3771 76.6639 67.9541 77.0561L72.8742 69.8169C72.0943 69.2868 69.6497 67.7129 66.6826 66.0238L62.3523 73.6306ZM67.9656 77.0639C70.3589 78.6795 73.5797 79.7589 76.7211 78.8586L74.3096 70.4444C74.4441 70.4058 74.3903 70.4612 74.0895 70.3896C73.7966 70.3199 73.3675 70.1499 72.8628 69.8091L67.9656 77.0639ZM76.7211 78.8586C78.7762 78.2696 80.4798 76.9387 81.5888 75.0918L74.0847 70.586C74.0725 70.6063 74.0879 70.575 74.1457 70.5301C74.2041 70.4849 74.2656 70.457 74.3096 70.4444L76.7211 78.8586ZM81.5062 75.2239C82.4071 73.8379 83.0058 72.2914 83.0472 70.62C83.0896 68.9121 82.5398 67.4879 81.8338 66.4008C81.1655 65.3717 80.3506 64.6315 79.7798 64.16C79.4865 63.9177 79.2065 63.7058 79.0108 63.5579C78.7801 63.3834 78.696 63.3192 78.6416 63.2738L73.0397 69.9994C73.2902 70.2081 73.5695 70.417 73.7322 70.54C73.9299 70.6895 74.0733 70.7992 74.2051 70.9081C74.4843 71.1387 74.5257 71.2184 74.493 71.1681C74.4667 71.1275 74.4113 71.0315 74.3652 70.8837C74.3171 70.7295 74.293 70.5625 74.297 70.403C74.3052 70.0694 74.4227 70.0608 74.1672 70.4539L81.5062 75.2239Z"
      fill="#fff" fill-opacity="0" />
    <path
      d="M75.8406 66.6366C75.1982 66.1105 72.737 64.576 68.587 62.105C70.2508 58.9512 71.6265 56.317 72.0227 55.6025C72.5845 54.5128 72.6845 53.3368 72.3012 52.1902C71.9684 51.029 71.4845 50.2936 70.4597 49.7678C68.4895 48.8028 65.9003 49.4902 64.6034 51.4462C64.1928 52.1102 62.8026 54.6939 61.0883 57.8622C58.2159 56.227 55.8486 54.8295 55.2855 54.3899C54.08 53.4242 52.6298 53.1297 51.1657 53.5493C50.156 53.8386 49.2836 54.4165 48.736 55.1744C47.4822 56.8995 47.7654 59.2221 49.8446 61.1393C50.5305 61.8169 53.1576 63.3585 57.0188 65.5844C55.2614 68.9836 53.7561 71.928 53.4034 72.794C52.9281 73.8043 52.3454 75.7742 53.0177 77.5482C53.4441 78.464 54.2094 79.2281 55.2052 79.6529C56.367 80.0848 57.0018 80.0121 57.86 79.7661C59.3241 79.3465 60.1238 78.134 60.8081 76.8998C61.1683 76.2503 62.6881 73.3563 64.5175 69.8272C67.3899 71.4624 69.7357 72.9754 70.4142 73.4365C72.1753 74.6254 74.0513 75.0711 75.5154 74.6515C76.4746 74.3766 77.282 73.7627 77.8367 72.8389C80.1495 69.2806 77.0606 67.6528 75.8406 66.6366Z"
      fill="currentColor" />
  </g>
  <defs>
    <clipPath id="clip0_26_388">
      <rect width="128" height="128" fill="white" />
    </clipPath>
  </defs>
</svg>